<svg viewBox="0 0 45 33" fill="currentColor" xmlns="http://www.w3.org/2000/svg">
<path d="M6.75 14.25C9.21094 14.25 11.25 12.2812 11.25 9.75C11.25 7.28906 9.21094 5.25 6.75 5.25C4.21875 5.25 2.25 7.28906 2.25 9.75C2.25 12.2812 4.21875 14.25 6.75 14.25ZM38.25 14.25C40.7109 14.25 42.75 12.2812 42.75 9.75C42.75 7.28906 40.7109 5.25 38.25 5.25C35.7188 5.25 33.75 7.28906 33.75 9.75C33.75 12.2812 35.7188 14.25 38.25 14.25ZM40.5 16.5H36C34.7344 16.5 33.6094 17.0625 32.7656 17.8359C35.6484 19.3828 37.6172 22.1953 38.1094 25.5H42.75C43.9453 25.5 45 24.5156 45 23.25V21C45 18.5391 42.9609 16.5 40.5 16.5ZM22.5 16.5C26.7891 16.5 30.375 12.9844 30.375 8.625C30.375 4.33594 26.7891 0.75 22.5 0.75C18.1406 0.75 14.625 4.33594 14.625 8.625C14.625 12.9844 18.1406 16.5 22.5 16.5ZM27.8438 18.75H27.2812C25.8047 19.4531 24.1875 19.875 22.5 19.875C20.7422 19.875 19.125 19.4531 17.6484 18.75H17.0859C12.5859 18.75 9 22.4062 9 26.9062V28.875C9 30.7734 10.4766 32.25 12.375 32.25H32.625C34.4531 32.25 36 30.7734 36 28.875V26.9062C36 22.4062 32.3438 18.75 27.8438 18.75ZM12.1641 17.8359C11.3203 17.0625 10.1953 16.5 9 16.5H4.5C1.96875 16.5 0 18.5391 0 21V23.25C0 24.5156 0.984375 25.5 2.25 25.5H6.82031C7.3125 22.1953 9.28125 19.3828 12.1641 17.8359Z"/>
</svg>
