<svg viewBox="0 0 30 30" fill="none" xmlns="http://www.w3.org/2000/svg">
<path fill-rule="evenodd" clip-rule="evenodd" d="M5 0C5.92047 0 6.66667 0.746192 6.66667 1.66667V16.9526C7.36317 17.1989 8.00319 17.5988 8.53553 18.1311C9.47322 19.0688 10 20.3406 10 21.6667C10 22.9927 9.47322 24.2645 8.53553 25.2022C8.00319 25.7345 7.36317 26.1344 6.66667 26.3807V28.3333C6.66667 29.2538 5.92047 30 5 30C4.07953 30 3.33333 29.2538 3.33333 28.3333V26.3807C2.63683 26.1344 1.99681 25.7345 1.46447 25.2022C0.526784 24.2645 0 22.9927 0 21.6667C0 20.3406 0.526784 19.0688 1.46447 18.1311C1.99681 17.5988 2.63683 17.1989 3.33333 16.9526V1.66667C3.33333 0.746192 4.07953 0 5 0ZM15 0C15.9205 0 16.6667 0.746192 16.6667 1.66667V3.61929C17.3632 3.86555 18.0032 4.26546 18.5355 4.7978C19.4732 5.73548 20 7.00725 20 8.33333C20 9.65942 19.4732 10.9312 18.5355 11.8689C18.0032 12.4012 17.3632 12.8011 16.6667 13.0474V28.3333C16.6667 29.2538 15.9205 30 15 30C14.0795 30 13.3333 29.2538 13.3333 28.3333V13.0474C12.6368 12.8011 11.9968 12.4012 11.4645 11.8689C10.5268 10.9312 10 9.65942 10 8.33333C10 7.00725 10.5268 5.73548 11.4645 4.7978C11.9968 4.26546 12.6368 3.86555 13.3333 3.61929V1.66667C13.3333 0.746192 14.0795 0 15 0ZM25 0C25.9205 0 26.6667 0.746192 26.6667 1.66667V16.9526C27.3632 17.1989 28.0032 17.5988 28.5355 18.1311C29.4732 19.0688 30 20.3406 30 21.6667C30 22.9928 29.4732 24.2645 28.5355 25.2022C28.0032 25.7345 27.3632 26.1344 26.6667 26.3807V28.3333C26.6667 29.2538 25.9205 30 25 30C24.0795 30 23.3333 29.2538 23.3333 28.3333V26.3807C22.6368 26.1344 21.9968 25.7345 21.4645 25.2022C20.5268 24.2645 20 22.9928 20 21.6667C20 20.3406 20.5268 19.0688 21.4645 18.1311C21.9968 17.5988 22.6368 17.1989 23.3333 16.9526V1.66667C23.3333 0.746192 24.0795 0 25 0Z" fill="#2A9F28"/>
</svg>
