<svg  viewBox="0 0 293 60" fill="none" xmlns="http://www.w3.org/2000/svg">
<path d="M63.9033 23.2852C63.9033 23.1356 63.9033 22.6681 63.9033 21.8828C63.9033 21.0975 63.9033 20.1626 63.9033 19.0781C63.9033 17.9936 63.9033 16.8344 63.9033 15.6003C63.9033 14.3288 63.9033 13.1509 63.9033 12.0664C63.9033 10.9445 63.9033 9.99092 63.9033 9.20561C63.9033 8.3829 63.8846 7.87806 63.8472 7.69108C63.8472 7.57889 63.6976 7.5228 63.3984 7.5228C63.0993 7.4854 62.7627 7.4854 62.3888 7.5228C62.0148 7.5602 61.6408 7.61629 61.2669 7.69108C60.8929 7.72848 60.6311 7.74717 60.4816 7.74717C60.0328 7.78457 59.6589 7.82197 59.3597 7.85936C59.0605 7.85936 58.7801 7.85936 58.5183 7.85936C58.2565 7.85936 57.976 7.85936 57.6769 7.85936C57.3777 7.82197 57.0037 7.78457 56.555 7.74717C56.5176 9.39259 56.4802 11.3372 56.4428 13.5809C56.4428 15.7873 56.4428 18.1432 56.4428 20.6487C56.4428 23.1543 56.4428 25.7346 56.4428 28.3897C56.4428 31.0074 56.4428 33.5503 56.4428 36.0184C56.4802 38.4866 56.4989 40.8051 56.4989 42.9741C56.5363 45.1056 56.555 46.938 56.555 48.4713C57.4525 48.3965 58.2004 48.3778 58.7987 48.4152C59.3971 48.4526 59.9393 48.4713 60.4255 48.4713C60.9116 48.5087 61.3791 48.5087 61.8278 48.4713C62.314 48.4339 62.8749 48.3217 63.5106 48.1347V47.9103C63.6602 46.6763 63.735 45.4422 63.735 44.2081C63.735 42.9741 63.6976 41.74 63.6228 40.506C63.5854 39.2345 63.548 37.9817 63.5106 36.7477C63.4732 35.4762 63.4919 34.1861 63.5667 32.8772C63.6415 31.8675 63.9033 31.1196 64.352 30.6334C64.8008 30.1099 65.3056 29.7733 65.8666 29.6238C66.4275 29.4368 66.9884 29.3994 67.5494 29.5116C68.1477 29.5864 68.5965 29.6985 68.8956 29.8481C68.933 29.8855 68.9704 29.9042 69.0078 29.9042C69.0452 29.9042 69.0826 29.9229 69.12 29.9603C69.4192 30.1847 69.6435 30.5026 69.7931 30.9139C69.9801 31.3253 70.111 31.7927 70.1858 32.3163C70.298 32.8398 70.3728 33.382 70.4102 33.943C70.4476 34.4665 70.485 34.9527 70.5224 35.4014C70.5971 36.4111 70.6345 37.4956 70.6345 38.6549C70.6719 39.8141 70.6719 40.9734 70.6345 42.1327C70.6345 43.2919 70.6345 44.4138 70.6345 45.4983C70.6345 46.5828 70.6719 47.5551 70.7467 48.4152C72.0556 48.4152 73.2149 48.4152 74.2245 48.4152C75.2716 48.4526 76.4496 48.3778 77.7585 48.1908C77.6837 46.9193 77.665 45.4422 77.7024 43.7594C77.7398 42.0766 77.7772 40.3377 77.8145 38.5427C77.8519 36.7103 77.8706 34.9153 77.8706 33.1577C77.908 31.3627 77.8893 29.7172 77.8145 28.2214C77.7772 26.7256 77.6463 25.4541 77.4219 24.407C77.2349 23.3226 76.9544 22.612 76.5805 22.2755C75.7952 21.6023 74.9164 21.1349 73.9441 20.8731C72.9718 20.6114 71.9621 20.4992 70.915 20.5366C69.9053 20.574 68.9143 20.7609 67.942 21.0975C66.9697 21.4341 66.0909 21.8828 65.3056 22.4437C65.1187 22.5933 64.8756 22.7429 64.5764 22.8925C64.3146 23.0421 64.0903 23.173 63.9033 23.2852Z" fill="#D94B4B"/>
<path d="M88.4299 34.2234C88.8038 34.2982 89.4021 34.3543 90.2249 34.3917C91.0476 34.4291 91.9638 34.4478 92.9735 34.4478C94.0205 34.4478 95.105 34.4291 96.2269 34.3917C97.3488 34.3543 98.3959 34.2982 99.3681 34.2234C100.378 34.1487 101.238 34.0739 101.948 33.9991C102.696 33.9243 103.201 33.8495 103.463 33.7747C103.575 32.2041 103.575 30.6521 103.463 29.1189C103.351 27.5857 103.014 26.1833 102.453 24.9119C101.93 23.6404 101.144 22.5559 100.097 21.6584C99.0503 20.7609 97.6666 20.1626 95.9464 19.8634C94.6002 19.5269 93.2165 19.3773 91.7955 19.4147C90.3744 19.4521 89.0282 19.6765 87.7567 20.0878C86.4853 20.4618 85.3447 21.0414 84.335 21.8267C83.3253 22.5746 82.5774 23.4908 82.0913 24.5753C81.6425 25.8094 81.3433 27.0808 81.1938 28.3897C81.0816 29.6611 80.9694 30.9887 80.8572 32.3723C80.7824 33.9056 80.8198 35.4388 80.9694 36.972C81.119 38.5053 81.3994 39.9637 81.8108 41.3474C82.2221 42.6936 82.7644 43.9464 83.4375 45.1056C84.1106 46.2275 84.952 47.1437 85.9617 47.8542C86.8592 48.3778 87.8315 48.7143 88.8786 48.8639C89.9257 48.8639 91.0663 48.9013 92.3003 48.9761C93.5718 49.0509 94.8059 49.0509 96.0025 48.9761C97.1992 48.9013 98.3024 48.6769 99.3121 48.303C100.322 47.929 101.144 47.2933 101.78 46.3958C102.042 46.1714 102.248 45.7788 102.397 45.2178C102.584 44.6195 102.734 43.9277 102.846 43.1424C102.958 42.3197 103.052 41.4408 103.126 40.506C103.201 39.5711 103.276 38.6175 103.351 37.6452C102.939 37.533 102.416 37.4769 101.78 37.4769C101.144 37.4395 100.471 37.4395 99.7608 37.4769C99.0877 37.5143 98.4333 37.5517 97.7975 37.5891C97.1618 37.5891 96.6569 37.5704 96.283 37.533C96.3578 39.0662 96.1147 40.2255 95.5538 41.0108C95.0302 41.7587 94.3758 42.2075 93.5905 42.357C92.8052 42.5066 92.0012 42.3757 91.1785 41.9644C90.3557 41.553 89.72 40.9173 89.2713 40.0572C88.8599 39.3841 88.6168 38.6923 88.542 37.9817C88.5046 37.2712 88.4673 36.355 88.4299 35.2331V34.2234ZM95.2172 25.5289C95.8903 25.8655 96.4139 26.3703 96.7878 27.0434C97.1992 27.7166 97.4049 28.4271 97.4049 29.175C97.4049 29.4742 97.4049 29.6798 97.4049 29.792C97.4049 29.8668 97.2927 29.9229 97.0683 29.9603C96.8813 29.9603 96.5448 29.9416 96.0586 29.9042C95.5725 29.8668 94.8433 29.8481 93.871 29.8481C92.4499 29.8481 91.3654 29.8668 90.6175 29.9042C89.907 29.9042 89.3835 29.8855 89.0469 29.8481C88.7103 29.7733 88.5233 29.6611 88.486 29.5116C88.486 29.3246 88.5233 29.0254 88.5981 28.6141C88.6729 28.1279 88.7851 27.6605 88.9347 27.2117C89.1217 26.763 89.3834 26.3703 89.72 26.0338C90.0566 25.6972 90.5053 25.4354 91.0663 25.2484C91.6272 25.0615 92.3564 24.968 93.2539 24.968C93.6653 24.968 94.0205 25.0241 94.3197 25.1363C94.6189 25.211 94.918 25.3419 95.2172 25.5289Z" fill="#D94B4B"/>
<path d="M112.417 20.4244C111.22 20.2748 109.874 20.2561 108.378 20.3683C106.882 20.4431 105.461 20.4057 104.115 20.2561C105.274 24.4818 106.452 28.8571 107.649 33.382C108.845 37.9069 109.836 42.4318 110.622 46.9567C110.809 48.1908 110.696 49.0883 110.285 49.6492C109.911 50.2102 109.35 50.5654 108.602 50.715C107.854 50.902 106.994 50.9581 106.022 50.8833C105.087 50.8085 104.171 50.7711 103.273 50.7711C103.086 51.8182 103.011 53.0336 103.049 54.4172C103.049 55.8383 103.236 57.1097 103.61 58.2316C106.788 58.4186 109.462 58.1755 111.631 57.5024C113.838 56.8292 115.67 55.8383 117.128 54.5294C118.624 53.2579 119.821 51.7434 120.718 49.9858C121.616 48.2282 122.345 46.3771 122.906 44.4325C123.504 42.4879 123.991 40.506 124.365 38.4866C124.776 36.4672 125.225 34.5413 125.711 32.7089C126.16 30.7643 126.608 28.7823 127.057 26.763C127.543 24.7062 128.085 22.5559 128.684 20.3122C127.113 20.2 125.673 20.1813 124.365 20.2561C123.056 20.3309 121.765 20.3496 120.494 20.3122C120.045 21.4341 119.671 22.9112 119.372 24.7436C119.073 26.576 118.793 28.4832 118.531 30.4652C118.306 32.4471 118.063 34.3543 117.802 36.1867C117.54 38.0191 117.203 39.4963 116.792 40.6181C116.38 39.4963 115.969 38.0752 115.558 36.355C115.146 34.5974 114.754 32.765 114.38 30.8578C114.006 28.9506 113.651 27.0808 113.314 25.2484C112.977 23.3786 112.678 21.7706 112.417 20.4244Z" fill="#D94B4B"/>
<path d="M136.717 35.0088C136.717 34.6348 136.717 34.2795 136.717 33.943C136.717 33.569 136.755 33.1951 136.83 32.8211C136.979 31.961 137.241 31.157 137.615 30.4091C138.026 29.6238 138.512 28.9132 139.073 28.2775C139.522 27.9035 140.027 27.6418 140.588 27.4922C141.186 27.3052 141.785 27.2491 142.383 27.3239C142.981 27.3987 143.523 27.6044 144.01 27.9409C144.533 28.2401 144.907 28.6702 145.131 29.2311C145.505 30.6521 145.711 32.148 145.749 33.7186C145.823 35.2518 145.861 36.7664 145.861 38.2622C145.823 38.5988 145.767 38.954 145.692 39.328C145.655 39.6645 145.58 40.0011 145.468 40.3377C145.356 40.6368 145.206 40.9173 145.019 41.1791C144.832 41.4035 144.571 41.5717 144.234 41.6839C143.262 41.9831 142.215 42.0579 141.093 41.9083C139.971 41.7213 139.073 41.2165 138.4 40.3938C137.278 39.0475 136.717 37.4208 136.717 35.5136V35.0088ZM146.422 59.5217C146.87 59.4844 147.357 59.4096 147.88 59.2974C148.404 59.1852 148.927 58.9795 149.451 58.6803C149.974 58.4186 150.498 58.0446 151.021 57.5585C151.582 57.0723 152.125 56.4179 152.648 55.5952C153.022 54.9968 153.19 54.2489 153.153 53.3514C153.115 52.4913 153.115 51.6125 153.153 50.715C153.377 45.33 153.471 40.0946 153.433 35.0088C153.433 29.8855 153.359 24.9867 153.209 20.3122C151.938 20.3122 150.666 20.2935 149.395 20.2561C148.123 20.1813 146.87 20.2187 145.636 20.3683C145.524 20.5553 145.468 20.817 145.468 21.1536C145.505 21.4528 145.524 21.7706 145.524 22.1072C145.562 22.4064 145.562 22.6681 145.524 22.8925C145.524 23.0795 145.449 23.1356 145.3 23.0608C144.851 22.0137 144.103 21.3032 143.056 20.9292C142.046 20.5179 140.943 20.3496 139.746 20.4244C137.353 20.574 135.521 21.2658 134.249 22.4998C132.978 23.6965 132.043 25.1923 131.445 26.9873C130.884 28.745 130.566 30.6334 130.491 32.6528C130.416 34.6722 130.379 36.5607 130.379 38.3183C130.454 39.4776 130.603 40.6181 130.828 41.74C131.052 42.8245 131.426 43.8716 131.949 44.8813C132.286 45.5918 132.716 46.1714 133.24 46.6202C133.763 47.0689 134.343 47.4242 134.979 47.686C135.652 47.9477 136.343 48.1347 137.054 48.2469C137.802 48.3591 138.531 48.4152 139.242 48.4152C139.765 48.3778 140.326 48.3591 140.924 48.3591C141.523 48.3591 142.102 48.3217 142.663 48.2469C143.262 48.1721 143.804 48.0412 144.29 47.8542C144.814 47.6673 145.262 47.3681 145.636 46.9567C145.562 47.6299 145.562 48.2843 145.636 48.92C145.674 49.2192 145.674 49.5557 145.636 49.9297C145.599 50.3411 145.562 50.7337 145.524 51.1077C145.3 52.1548 144.814 52.9027 144.066 53.3514C143.355 53.8002 142.607 53.9872 141.822 53.9124C141.074 53.8376 140.382 53.501 139.746 52.9027C139.148 52.3417 138.849 51.5751 138.849 50.6028C138.4 50.528 137.839 50.4533 137.166 50.3785C136.53 50.3411 135.857 50.3037 135.147 50.2663C134.474 50.2663 133.819 50.285 133.184 50.3224C132.548 50.3972 132.043 50.5093 131.669 50.6589C131.632 50.9581 131.613 51.3134 131.613 51.7247C131.65 52.1361 131.706 52.5661 131.781 53.0149C131.893 53.4636 132.006 53.8937 132.118 54.305C132.267 54.7538 132.417 55.109 132.566 55.3708C133.427 56.6423 134.548 57.652 135.932 58.3999C137.316 59.1478 138.886 59.5217 140.644 59.5217C142.177 59.5217 143.43 59.5404 144.402 59.5778C145.375 59.6152 146.048 59.5965 146.422 59.5217Z" fill="#1E1E1E"/>
<path d="M171.092 45.2739C171.129 45.7975 171.129 46.2649 171.092 46.6763C171.092 47.0876 171.129 47.6112 171.204 48.2469C171.204 48.3591 171.353 48.4152 171.652 48.4152C171.952 48.4526 172.288 48.4526 172.662 48.4152C173.036 48.3778 173.41 48.3404 173.784 48.303C174.158 48.2282 174.42 48.1908 174.569 48.1908C175.018 48.1534 175.392 48.1347 175.691 48.1347C175.99 48.0973 176.271 48.0786 176.533 48.0786C176.794 48.0786 177.075 48.0973 177.374 48.1347C177.673 48.1347 178.047 48.1534 178.496 48.1908C178.645 43.2546 178.664 38.4866 178.552 33.8869C178.477 29.2872 178.44 24.6875 178.44 20.0878C177.542 20.1626 176.794 20.1813 176.196 20.1439C175.598 20.1065 175.055 20.0878 174.569 20.0878C174.083 20.0504 173.597 20.0504 173.111 20.0878C172.662 20.1252 172.12 20.2374 171.484 20.4244V20.6487C171.297 21.8828 171.204 23.1169 171.204 24.3509C171.241 25.585 171.278 26.8378 171.316 28.1092C171.391 29.3433 171.447 30.596 171.484 31.8675C171.522 33.139 171.503 34.4104 171.428 35.6819C171.353 36.6916 171.092 37.4582 170.643 37.9817C170.194 38.4679 169.689 38.8044 169.128 38.9914C168.567 39.141 167.988 39.1784 167.389 39.1036C166.828 38.9914 166.398 38.8605 166.099 38.711C166.062 38.6736 166.024 38.6549 165.987 38.6549C165.95 38.6549 165.912 38.6362 165.875 38.5988C165.576 38.3744 165.333 38.0565 165.146 37.6452C164.996 37.2338 164.865 36.7664 164.753 36.2428C164.678 35.7193 164.622 35.1957 164.585 34.6722C164.547 34.1113 164.51 33.6064 164.472 33.1577C164.398 32.148 164.342 31.0635 164.304 29.9042C164.304 28.7449 164.304 27.5857 164.304 26.4264C164.342 25.2671 164.36 24.1453 164.36 23.0608C164.36 21.9763 164.323 21.004 164.248 20.1439C162.939 20.1439 161.761 20.1439 160.714 20.1439C159.704 20.1065 158.545 20.1813 157.236 20.3683C157.311 21.6397 157.33 23.1169 157.292 24.7997C157.255 26.4825 157.218 28.2401 157.18 30.0725C157.143 31.8675 157.105 33.6625 157.068 35.4575C157.068 37.2151 157.087 38.8418 157.124 40.3377C157.199 41.8335 157.33 43.1237 157.517 44.2081C157.741 45.2552 158.04 45.947 158.414 46.2836C159.2 46.9567 160.078 47.4242 161.051 47.686C162.023 47.9477 163.014 48.0599 164.024 48.0225C165.071 47.9851 166.08 47.7981 167.053 47.4616C168.025 47.125 168.904 46.6763 169.689 46.1153C169.876 45.9658 170.101 45.8162 170.362 45.6666C170.661 45.517 170.905 45.3861 171.092 45.2739Z" fill="#1E1E1E"/>
<path d="M190.006 23.2852C189.969 22.7616 189.95 22.2942 189.95 21.8828C189.987 21.4715 189.969 20.9479 189.894 20.3122C189.894 20.2 189.744 20.1439 189.445 20.1439C189.146 20.1065 188.809 20.1065 188.435 20.1439C188.061 20.1813 187.688 20.2374 187.314 20.3122C186.94 20.3496 186.678 20.3683 186.528 20.3683C186.08 20.4057 185.706 20.4431 185.406 20.4805C185.107 20.4805 184.827 20.4805 184.565 20.4805C184.303 20.4805 184.023 20.4805 183.724 20.4805C183.424 20.4431 183.05 20.4057 182.602 20.3683C182.452 25.3045 182.415 30.0725 182.49 34.6722C182.602 39.2719 182.658 43.8716 182.658 48.4713C183.555 48.3965 184.303 48.3778 184.902 48.4152C185.5 48.4526 186.042 48.4713 186.528 48.4713C187.014 48.5087 187.482 48.5087 187.931 48.4713C188.417 48.4339 188.978 48.3217 189.613 48.1347V47.9103C189.763 46.6763 189.838 45.4422 189.838 44.2081C189.838 42.9741 189.8 41.74 189.726 40.506C189.688 39.2345 189.651 37.9817 189.613 36.7477C189.576 35.4762 189.595 34.1861 189.67 32.8772C189.744 31.8675 190.006 31.1196 190.455 30.6334C190.904 30.1099 191.408 29.7733 191.969 29.6238C192.53 29.4368 193.091 29.3994 193.652 29.5116C194.251 29.5864 194.699 29.6985 194.998 29.8481C195.036 29.8855 195.073 29.9042 195.111 29.9042C195.148 29.9042 195.185 29.9229 195.223 29.9603C195.522 30.1847 195.746 30.5026 195.896 30.9139C196.083 31.3253 196.214 31.7927 196.289 32.3163C196.401 32.8398 196.476 33.382 196.513 33.943C196.55 34.4665 196.588 34.9527 196.625 35.4014C196.7 36.4111 196.737 37.4956 196.737 38.6549C196.775 39.8141 196.775 40.9734 196.737 42.1327C196.737 43.2919 196.737 44.4138 196.737 45.4983C196.737 46.5828 196.775 47.5551 196.85 48.4152C198.158 48.4152 199.318 48.4152 200.327 48.4152C201.374 48.4526 202.552 48.3778 203.861 48.1908C203.786 47.0689 203.749 45.7788 203.749 44.3203C203.786 42.8245 203.824 41.2913 203.861 39.7206C203.899 38.1126 203.936 36.5046 203.973 34.8966C204.011 33.2512 204.011 31.6992 203.973 30.2408C204.31 29.979 204.665 29.792 205.039 29.6798C205.451 29.5303 205.843 29.4555 206.217 29.4555C206.629 29.4555 207.003 29.4929 207.339 29.5677C207.676 29.6425 207.956 29.7359 208.18 29.8481C208.218 29.8855 208.255 29.9042 208.293 29.9042C208.33 29.9042 208.367 29.9229 208.405 29.9603C208.704 30.1847 208.928 30.5026 209.078 30.9139C209.265 31.3253 209.396 31.7927 209.471 32.3163C209.583 32.8398 209.658 33.382 209.695 33.943C209.732 34.4665 209.77 34.9527 209.807 35.4014C209.882 36.4111 209.919 37.4956 209.919 38.6549C209.957 39.8141 209.957 40.9734 209.919 42.1327C209.919 43.2919 209.919 44.4138 209.919 45.4983C209.919 46.5828 209.957 47.5551 210.032 48.4152C211.34 48.4152 212.5 48.4152 213.509 48.4152C214.556 48.4526 215.734 48.3778 217.043 48.1908C216.968 46.9193 216.95 45.4422 216.987 43.7594C217.025 42.0766 217.062 40.3377 217.099 38.5427C217.137 36.7103 217.155 34.9153 217.155 33.1577C217.193 31.3627 217.174 29.7172 217.099 28.2214C217.062 26.7256 216.931 25.4541 216.707 24.407C216.52 23.3226 216.239 22.612 215.865 22.2755C215.08 21.6023 214.201 21.1349 213.229 20.8731C212.257 20.6114 211.247 20.4992 210.2 20.5366C209.19 20.574 208.199 20.7609 207.227 21.0975C206.255 21.4341 205.376 21.8828 204.59 22.4437C204.403 22.5933 204.179 22.7429 203.917 22.8925C203.656 23.0047 203.431 23.1169 203.244 23.2291C203.057 22.7803 202.87 22.4624 202.683 22.2755C201.898 21.6023 201.019 21.1349 200.047 20.8731C199.075 20.6114 198.065 20.4992 197.018 20.5366C196.008 20.574 195.017 20.7609 194.045 21.0975C193.073 21.4341 192.194 21.8828 191.408 22.4437C191.221 22.5933 190.978 22.7429 190.679 22.8925C190.417 23.0421 190.193 23.173 190.006 23.2852Z" fill="#1E1E1E"/>
<path d="M228.295 8.86905C228.295 8.83165 228.034 8.79426 227.51 8.75686C227.024 8.68207 226.407 8.64468 225.659 8.64468C224.948 8.60728 224.182 8.60728 223.359 8.64468C222.536 8.64468 221.826 8.70077 221.228 8.81295V12.5151C221.228 15.619 221.19 18.7229 221.115 21.8267C221.041 24.9306 220.966 27.997 220.891 31.0261C220.854 34.0178 220.816 36.972 220.779 39.8889C220.779 42.7684 220.816 45.5544 220.891 48.2469C222.05 48.2469 223.322 48.2656 224.705 48.303C226.089 48.3778 227.342 48.3404 228.464 48.1908C228.501 48.116 228.52 47.9851 228.52 47.7981C228.52 47.4242 228.52 47.125 228.52 46.9006C228.557 46.6763 228.576 46.3584 228.576 45.947C228.651 45.7601 228.725 45.6292 228.8 45.5544C228.912 45.4422 229.025 45.4983 229.137 45.7227C229.698 46.8446 230.446 47.5738 231.381 47.9103C232.315 48.2095 233.306 48.2843 234.353 48.1347C236.485 47.9851 238.168 47.4429 239.402 46.508C240.636 45.5357 241.552 44.3203 242.151 42.8619C242.786 41.3661 243.198 39.7019 243.385 37.8695C243.572 36.0371 243.702 34.186 243.777 32.3163C243.777 31.0074 243.684 29.7359 243.497 28.5019C243.347 27.2678 243.085 26.1459 242.711 25.1363C242.375 24.0892 241.907 23.2104 241.309 22.4998C240.748 21.7519 240.056 21.2284 239.234 20.9292C238.224 20.5553 237.102 20.3309 235.868 20.2561C234.671 20.1439 233.531 20.1439 232.446 20.2561C231.362 20.3309 230.446 20.4992 229.698 20.7609C228.95 21.0227 228.538 21.3219 228.464 21.6584C228.501 19.9008 228.52 18.4798 228.52 17.3953C228.52 16.3108 228.52 15.4507 228.52 14.815C228.52 14.1419 228.501 13.637 228.464 13.3005C228.464 12.9265 228.445 12.5899 228.408 12.2908C228.408 11.9542 228.389 11.5989 228.351 11.225C228.351 10.8136 228.333 10.234 228.295 9.48608V8.86905ZM236.99 30.6334C237.177 31.157 237.289 31.6992 237.326 32.2602C237.364 32.8211 237.383 33.3633 237.383 33.8869C237.383 34.8218 237.27 35.738 237.046 36.6355C236.822 37.4956 236.485 38.2809 236.036 38.9914C235.588 39.6645 235.045 40.2068 234.41 40.6181C233.774 41.0295 233.063 41.2352 232.278 41.2352C231.306 41.2352 230.558 41.0295 230.034 40.6181C229.511 40.2068 229.099 39.6458 228.8 38.9353C228.538 38.2248 228.37 37.3834 228.295 36.4111C228.258 35.4014 228.239 34.2982 228.239 33.1016C228.239 31.6431 228.258 30.5026 228.295 29.6798C228.37 28.8197 228.52 28.1653 228.744 27.7166C228.968 27.2678 229.305 26.9873 229.754 26.8752C230.24 26.7256 230.876 26.6508 231.661 26.6508C233.194 26.6508 234.41 26.9873 235.307 27.6605C236.242 28.3336 236.803 29.3246 236.99 30.6334Z" fill="#1E1E1E"/>
<path d="M269.573 20.3683C268.376 20.2935 267.31 20.2374 266.376 20.2C265.478 20.1626 264.711 20.1252 264.076 20.0878C263.964 20.0878 263.758 20.0878 263.459 20.0878C263.16 20.0878 262.86 20.0878 262.561 20.0878C262.262 20.0504 261.982 20.0504 261.72 20.0878C261.495 20.0878 261.383 20.1065 261.383 20.1439C261.383 20.5927 261.327 21.0414 261.215 21.4902C261.14 21.9015 261.121 22.4064 261.159 23.0047C260.897 22.369 260.579 21.8828 260.205 21.5462C259.831 21.1723 259.401 20.9105 258.915 20.7609C258.429 20.574 257.887 20.4805 257.288 20.4805C256.727 20.4431 256.11 20.4244 255.437 20.4244C254.128 20.4618 252.894 20.817 251.735 21.4902C250.576 22.1259 249.566 23.0234 248.706 24.1827C247.883 25.3045 247.229 26.6508 246.743 28.2214C246.257 29.792 246.014 31.5122 246.014 33.382C246.014 34.8779 246.163 36.5046 246.462 38.2622C246.799 40.0198 247.304 41.6465 247.977 43.1424C248.65 44.6382 249.491 45.891 250.501 46.9006C251.548 47.9103 252.801 48.4152 254.259 48.4152C255.568 48.4152 256.896 48.0973 258.242 47.4616C259.626 46.8259 260.766 46.0592 261.664 45.1617C261.664 45.5357 261.626 45.8536 261.552 46.1153C261.477 46.3771 261.439 46.7137 261.439 47.125C261.439 47.4242 261.477 47.686 261.552 47.9103C261.664 48.1347 261.851 48.2843 262.112 48.3591C262.524 48.3591 262.916 48.3404 263.29 48.303C263.702 48.2282 264.113 48.1908 264.524 48.1908C265.123 48.1908 265.721 48.2282 266.319 48.303C266.955 48.3404 267.572 48.3591 268.171 48.3591H268.844C269.292 48.2843 269.517 48.0038 269.517 47.5177C269.554 47.0315 269.573 46.5454 269.573 46.0592C269.835 42.0579 269.891 38.1126 269.741 34.2234C269.592 30.2969 269.573 26.3142 269.685 22.2755V21.7145C269.685 21.4902 269.666 21.2658 269.629 21.0414C269.629 20.817 269.61 20.5927 269.573 20.3683ZM253.25 31.5309C253.437 30.596 253.96 29.7733 254.82 29.0628C255.718 28.3149 256.933 27.9409 258.466 27.9409C259.252 27.9409 259.831 27.997 260.205 28.1092C260.617 28.2214 260.897 28.4832 261.047 28.8945C261.234 29.3059 261.327 29.9042 261.327 30.6895C261.365 31.4375 261.383 32.4658 261.383 33.7747C261.383 34.8218 261.365 35.7754 261.327 36.6355C261.327 37.4582 261.215 38.1687 260.991 38.767C260.804 39.328 260.467 39.7767 259.981 40.1133C259.532 40.4125 258.84 40.562 257.905 40.562C256.335 40.562 255.101 39.9824 254.203 38.8231C253.343 37.6265 252.913 36.1867 252.913 34.5039C252.913 34.0178 252.932 33.5316 252.969 33.0455C253.007 32.5219 253.1 32.0171 253.25 31.5309Z" fill="#1E1E1E"/>
<path d="M273.813 7.5228C273.476 10.9258 273.308 14.3288 273.308 17.7319C273.345 21.1349 273.42 24.5379 273.532 27.9409C273.645 31.344 273.719 34.747 273.757 38.15C273.832 41.553 273.738 44.9374 273.476 48.303C273.738 48.2282 274.262 48.2095 275.047 48.2469C275.832 48.2843 276.655 48.303 277.515 48.303C278.413 48.3404 279.235 48.3404 279.983 48.303C280.731 48.303 281.199 48.1908 281.385 47.9664C281.311 46.4706 281.255 44.6569 281.217 42.5253C281.18 40.3564 281.161 38.0378 281.161 35.5697C281.161 33.1016 281.161 30.54 281.161 27.8848C281.199 25.2297 281.236 22.6681 281.273 20.2C281.311 17.7319 281.348 15.4133 281.385 13.2444C281.423 11.0754 281.442 9.22431 281.442 7.69108L273.813 7.5228Z" fill="#1E1E1E"/>
<path d="M285.371 7.5228C285.035 10.9258 284.866 14.3288 284.866 17.7319C284.904 21.1349 284.979 24.5379 285.091 27.9409C285.203 31.344 285.278 34.747 285.315 38.15C285.39 41.553 285.296 44.9374 285.035 48.303C285.296 48.2282 285.82 48.2095 286.605 48.2469C287.391 48.2843 288.213 48.303 289.073 48.303C289.971 48.3404 290.794 48.3404 291.542 48.303C292.289 48.303 292.757 48.1908 292.944 47.9664C292.869 46.4706 292.813 44.6569 292.776 42.5253C292.738 40.3564 292.719 38.0378 292.719 35.5697C292.719 33.1016 292.719 30.54 292.719 27.8848C292.757 25.2297 292.794 22.6681 292.832 20.2C292.869 17.7319 292.906 15.4133 292.944 13.2444C292.981 11.0754 293 9.22431 293 7.69108L285.371 7.5228Z" fill="#1E1E1E"/>
<path d="M23.441 32.424C21.8377 33.677 19.5221 33.393 18.2691 31.7896C17.0161 30.1862 17.3001 27.8707 18.9035 26.6177C20.5069 25.3646 22.8224 25.6487 24.0754 27.252C25.3284 28.8554 25.0444 31.171 23.441 32.424Z" fill="#1E8AB9"/>
<path d="M21.4407 24.0751C19.8374 25.3281 17.5218 25.0441 16.2688 23.4407C15.0158 21.8373 15.2998 19.5218 16.9032 18.2688C18.5065 17.0158 20.8221 17.2998 22.0751 18.9032C23.3281 20.5065 23.0441 22.8221 21.4407 24.0751Z" fill="#2A9F28"/>
<path d="M29.6735 26.2204C28.07 27.4735 25.7543 27.1895 24.5012 25.586C23.2481 23.9825 23.5322 21.6668 25.1357 20.4138C26.7391 19.1607 29.0548 19.4447 30.3079 21.0482C31.561 22.6517 31.277 24.9674 29.6735 26.2204Z" fill="#D94B4B"/>
<path d="M6.84912 6.97049C6.84912 3.12079 9.96991 0 13.8196 0H23.6945C27.5442 0 30.665 3.12079 30.665 6.97049H6.84912Z" fill="#AAAAAA"/>
<path fill-rule="evenodd" clip-rule="evenodd" d="M19.1775 7.90019C11.6122 7.90019 5.47929 14.0331 5.47929 21.5984C5.47929 29.1637 11.6122 35.2966 19.1775 35.2966C26.7428 35.2966 32.8757 29.1637 32.8757 21.5984C32.8757 14.0331 26.7428 7.90019 19.1775 7.90019ZM0 21.5984C0 11.007 8.58607 2.4209 19.1775 2.4209C29.769 2.4209 38.355 11.007 38.355 21.5984C38.355 32.1899 29.769 40.7759 19.1775 40.7759C8.58607 40.7759 0 32.1899 0 21.5984Z" fill="#AAAAAA"/>
<path fill-rule="evenodd" clip-rule="evenodd" d="M5.96362 40.7759L5.64368 40.7759C4.86 40.7759 4.18187 41.3218 4.01365 42.0882L1.40938 53.9521C1.18053 54.9946 1.97331 55.9817 3.03941 55.9817H35.271C36.3371 55.9817 37.1299 54.9946 36.901 53.9521L34.2968 42.0882C34.1286 41.3218 33.4504 40.7759 32.6667 40.7759H32.3914C28.6371 43.3676 24.0846 44.8853 19.1775 44.8853C14.2704 44.8853 9.71786 43.3676 5.96362 40.7759Z" fill="#D94B4B"/>
</svg>
