<svg  viewBox="0 0 307 247" fill="none" xmlns="http://www.w3.org/2000/svg">
<g clip-path="url(#clip0_20_165)">
<path d="M297.659 217.936C305.479 210.595 309.511 199.6 305.31 190.298C299.194 199.658 289.126 207.029 277.453 210.693C272.906 212.121 267.678 213.298 265.205 216.898C263.666 219.138 263.554 221.943 264.248 224.479C264.941 227.016 266.368 229.349 267.782 231.65L267.79 232.3C278.855 229.493 289.839 225.276 297.659 217.936Z" fill="#F2F2F2"/>
<path d="M305.074 190.347C303.756 198.448 299.442 206.235 292.845 212.106C291.413 213.434 289.789 214.539 288.026 215.383C286.212 216.184 284.234 216.548 282.252 216.447C280.386 216.388 278.485 216.14 276.634 216.474C275.726 216.634 274.86 216.974 274.087 217.474C273.315 217.975 272.651 218.625 272.136 219.388C270.909 221.187 270.502 223.261 270.185 225.301C269.833 227.566 269.508 229.923 268.013 231.872C267.832 232.108 268.265 232.338 268.446 232.102C271.048 228.712 270.178 224.38 271.933 220.724C272.753 219.018 274.17 217.515 276.29 217C278.143 216.55 280.104 216.804 281.993 216.878C283.93 217.001 285.87 216.708 287.683 216.02C289.489 215.258 291.16 214.209 292.63 212.916C295.85 210.172 298.602 206.925 300.777 203.301C303.191 199.331 304.822 194.937 305.583 190.357C305.628 190.077 305.12 190.069 305.074 190.347Z" fill="white"/>
<path d="M295.106 210.296C296.448 211.126 298.017 211.518 299.594 211.418C301.171 211.317 302.677 210.73 303.903 209.736C304.136 209.536 303.789 209.214 303.556 209.414C302.416 210.341 301.014 210.889 299.545 210.98C298.077 211.07 296.617 210.7 295.371 209.921C295.108 209.753 294.844 210.129 295.106 210.296Z" fill="white"/>
<path d="M283.194 216.585C282.933 215.17 282.975 213.716 283.318 212.318C283.661 210.921 284.297 209.612 285.184 208.477C285.364 208.24 284.931 208.01 284.751 208.247C283.83 209.429 283.172 210.793 282.818 212.248C282.465 213.703 282.424 215.216 282.7 216.687C282.754 216.967 283.248 216.863 283.194 216.585Z" fill="white"/>
<path d="M302.547 199.212C301.993 199.015 301.498 198.68 301.11 198.239C300.722 197.798 300.453 197.265 300.33 196.691C300.28 196.411 299.786 196.515 299.836 196.794C299.975 197.427 300.272 198.015 300.7 198.503C301.127 198.992 301.671 199.365 302.282 199.588C302.34 199.617 302.406 199.625 302.469 199.612C302.532 199.599 302.59 199.565 302.631 199.515C302.648 199.491 302.659 199.462 302.664 199.433C302.669 199.403 302.668 199.373 302.66 199.344C302.652 199.316 302.638 199.289 302.618 199.266C302.599 199.243 302.575 199.225 302.547 199.212Z" fill="white"/>
<path d="M268.228 179.722C268.254 179.898 268.279 180.074 268.302 180.252C268.631 182.614 268.738 185.001 268.622 187.383C268.616 187.567 268.608 187.754 268.596 187.937C268.228 193.732 266.644 199.385 263.947 204.53C262.849 206.631 261.582 208.639 260.158 210.535C258.173 213.18 255.779 215.912 254.943 218.883C254.853 219.191 254.784 219.505 254.737 219.822L266.873 232.258C266.917 232.275 266.958 232.293 267.002 232.31L267.46 232.826C267.542 232.731 267.625 232.632 267.707 232.538C267.755 232.483 267.8 232.426 267.848 232.371C267.879 232.334 267.91 232.297 267.94 232.265C267.951 232.252 267.961 232.24 267.968 232.23C267.999 232.198 268.023 232.165 268.05 232.135C268.515 231.581 268.976 231.023 269.433 230.462C269.436 230.459 269.436 230.459 269.436 230.454C272.907 226.166 275.995 221.59 278.182 216.753C278.248 216.607 278.317 216.459 278.377 216.308C279.344 214.14 280.109 211.888 280.663 209.58C280.958 208.327 281.18 207.058 281.329 205.779C281.703 202.479 281.476 199.138 280.658 195.918C279.024 189.467 275.026 183.54 268.713 179.989C268.552 179.899 268.393 179.811 268.228 179.722Z" fill="#F2F2F2"/>
<path d="M268.073 179.884C272.65 187.039 274.618 195.507 273.432 203.635C273.217 205.424 272.686 207.161 271.861 208.765C270.944 210.376 269.607 211.71 267.991 212.625C266.46 213.551 264.769 214.345 263.524 215.577C262.912 216.178 262.451 216.914 262.179 217.726C261.906 218.538 261.831 219.402 261.958 220.249C262.229 222.326 263.345 224.194 264.509 225.988C265.803 227.98 267.182 230.032 267.342 232.368C267.362 232.651 267.868 232.608 267.848 232.326C267.57 228.262 263.863 225.256 262.724 221.422C262.193 219.632 262.281 217.693 263.615 216.177C264.782 214.85 266.524 214.031 268.084 213.105C269.679 212.227 271.034 210.973 272.031 209.452C272.945 207.895 273.553 206.178 273.823 204.394C274.486 200.44 274.426 196.4 273.645 192.468C272.758 187.9 271.006 183.542 268.485 179.626C268.327 179.379 267.916 179.638 268.073 179.884V179.884Z" fill="white"/>
<path d="M273.979 201.011C277.302 200.98 280.139 198.82 280.614 195.975C280.661 195.694 280.16 195.618 280.113 195.899C279.668 198.565 277.037 200.544 273.93 200.572C273.603 200.575 273.654 201.013 273.979 201.011Z" fill="white"/>
<path d="M268.839 212.244C267.689 211.33 266.738 210.194 266.042 208.902C265.347 207.611 264.921 206.192 264.792 204.732C264.772 204.449 264.266 204.492 264.287 204.774C264.424 206.294 264.87 207.77 265.597 209.112C266.324 210.454 267.317 211.635 268.516 212.584C268.754 212.779 269.076 212.438 268.839 212.244Z" fill="white"/>
<path d="M272.217 188.28C271.603 188.404 270.969 188.392 270.36 188.244C269.751 188.096 269.182 187.815 268.694 187.423C268.459 187.225 268.137 187.566 268.371 187.763C268.912 188.194 269.54 188.503 270.213 188.668C270.885 188.833 271.586 188.85 272.266 188.718C272.401 188.692 272.507 188.607 272.494 188.478C272.482 188.416 272.447 188.361 272.395 188.324C272.344 188.287 272.28 188.271 272.217 188.28V188.28Z" fill="white"/>
<path d="M249.829 85.5031C255.575 85.5031 260.233 80.8584 260.233 75.1288C260.233 69.3993 255.575 64.7545 249.829 64.7545C244.083 64.7545 239.424 69.3993 239.424 75.1288C239.424 80.8584 244.083 85.5031 249.829 85.5031Z" fill="#A0616A"/>
<path d="M295.42 123.058C293.958 119.673 291.95 116.549 289.476 113.811C291.571 117.14 292.768 120.953 292.952 124.879C292.194 125.351 291.4 125.765 290.578 126.117C288.108 127.15 285.475 127.74 282.799 127.859C281.357 123.069 278.868 118.657 275.511 114.94C277.931 118.787 279.147 123.265 279.006 127.803C276.022 127.546 273.082 126.917 270.254 125.933C266.008 124.476 261.886 122.301 258.95 118.918C255.772 115.256 254.206 110.424 253.7 105.607C253.194 100.794 253.67 95.9353 254.149 91.1183C254.376 88.8227 252.458 86.1808 252.685 83.8852H252.836C253.844 82.5078 254.87 81.0966 255.365 79.4633C255.855 77.8338 255.727 75.9107 254.598 74.6274C253.966 73.9569 253.168 73.4638 252.285 73.1974C252.202 73.092 252.111 72.9904 252.017 72.8888C250.308 71.0789 248.296 69.5788 246.072 68.4556C247.676 69.6636 248.748 71.0297 249.246 72.441C247.858 72.1361 246.469 71.8326 245.08 71.5302C244.616 71.0393 244.127 70.572 243.615 70.1303C243.023 69.6518 242.396 69.2179 241.74 68.8319C242.456 69.4601 243.011 70.2497 243.359 71.1351C241.573 70.6873 239.788 70.0136 238.86 68.482C237.32 65.9492 239.15 62.5322 241.706 61.0193C243.564 59.9724 245.706 59.5344 247.828 59.7674C249.95 60.0004 251.945 60.8925 253.53 62.3176C257.225 59.6043 262.486 59.6495 266.597 61.6779C269.31 63.0769 271.647 65.1043 273.413 67.59C272.389 67.459 271.358 67.3874 270.326 67.3755C271.779 67.5876 273.163 68.1339 274.368 68.9712C274.901 69.7965 275.39 70.6495 275.832 71.5265C276.123 72.1023 276.397 72.6856 276.655 73.2764C278.236 76.8666 279.267 80.6901 280.335 84.4685C281.58 88.8716 282.916 93.3048 285.249 97.245C288.825 103.236 294.467 107.724 301.12 109.871C301.674 114.85 299.236 119.719 295.42 123.058Z" fill="#2F2E41"/>
<path d="M271.276 235.461L267.499 237.214L258.921 223.523L264.495 220.936L271.276 235.461Z" fill="#A0616A"/>
<path d="M276.316 241.06L273.607 242.317L271.933 239.992L271.886 243.117L264.702 246.451C264.358 246.611 263.971 246.657 263.599 246.582C263.227 246.507 262.888 246.316 262.633 246.036C262.377 245.755 262.218 245.401 262.179 245.024C262.14 244.648 262.222 244.268 262.414 243.942L266.307 237.329L265.103 234.751L271.304 232.31L276.316 241.06Z" fill="#2F2E41"/>
<path d="M233.362 239.42H229.196L227.214 223.398H233.362V239.42Z" fill="#A0616A"/>
<path d="M235.561 246.617H232.573L232.04 243.804L230.674 246.617H222.751C222.371 246.617 222.001 246.496 221.695 246.271C221.389 246.047 221.163 245.731 221.05 245.369C220.937 245.008 220.943 244.62 221.067 244.262C221.191 243.904 221.426 243.594 221.739 243.379L228.066 239.022V236.179L234.722 236.575L235.561 246.617Z" fill="#2F2E41"/>
<path d="M252.604 118.019L249.152 128.52L248.012 137.032L229.677 131.388L231.373 112.394L235.186 108.632L252.604 118.019Z" fill="#A0616A"/>
<path d="M77.0786 19.8227C78.1012 18.2901 77.4959 16.0962 75.7267 14.9225C73.9575 13.7488 71.6942 14.0398 70.6716 15.5724C69.649 17.105 70.2543 19.2989 72.0235 20.4725C73.7928 21.6462 76.056 21.3553 77.0786 19.8227Z" fill="#FD6584"/>
<path d="M114.267 147.518C115.289 145.985 114.684 143.792 112.915 142.618C111.146 141.444 108.882 141.735 107.86 143.268C106.837 144.8 107.442 146.994 109.212 148.168C110.981 149.342 113.244 149.051 114.267 147.518Z" fill="#E6E6E6"/>
<path d="M10.098 38.0057C11.1206 36.4731 10.5153 34.2792 8.74604 33.1055C6.9768 31.9318 4.71357 32.2228 3.69097 33.7554C2.66836 35.288 3.27364 37.4819 5.04288 38.6555C6.81212 39.8292 9.07535 39.5382 10.098 38.0057Z" fill="#E6E6E6"/>
<path d="M141.391 128.857H15.617C11.4765 128.852 7.50704 127.21 4.5793 124.291C1.65157 121.372 0.00470199 117.414 0 113.285V59.3778C0.00467508 55.2493 1.65153 51.2913 4.57927 48.372C7.50701 45.4528 11.4765 43.8107 15.617 43.806C55.7507 32.7194 97.8431 33.758 141.391 43.806C145.531 43.8107 149.501 45.4528 152.429 48.372C155.357 51.2913 157.003 55.2493 157.008 59.3778V113.285C157.003 117.414 155.356 121.372 152.429 124.291C149.501 127.21 145.531 128.852 141.391 128.857Z" fill="#F2F2F2"/>
<path d="M13.3985 115.121C13.349 115.121 13.2999 115.111 13.2541 115.092C13.2083 115.073 13.1667 115.046 13.1316 115.011C13.0966 114.976 13.0688 114.934 13.0498 114.888C13.0308 114.843 13.0211 114.794 13.0211 114.744V57.9184C13.0211 57.8186 13.0609 57.7229 13.1316 57.6523C13.2024 57.5818 13.2984 57.5421 13.3985 57.5421C13.4986 57.5421 13.5946 57.5818 13.6654 57.6523C13.7362 57.7229 13.7759 57.8186 13.7759 57.9184V114.744C13.776 114.794 13.7662 114.843 13.7472 114.888C13.7283 114.934 13.7005 114.976 13.6654 115.011C13.6304 115.046 13.5888 115.073 13.543 115.092C13.4972 115.111 13.4481 115.121 13.3985 115.121Z" fill="white"/>
<path d="M144.364 115.121C144.414 115.121 144.463 115.111 144.509 115.092C144.555 115.073 144.596 115.046 144.631 115.011C144.666 114.976 144.694 114.934 144.713 114.888C144.732 114.843 144.742 114.794 144.742 114.744V57.9184C144.742 57.8186 144.702 57.7229 144.631 57.6523C144.56 57.5818 144.464 57.5421 144.364 57.5421C144.264 57.5421 144.168 57.5818 144.097 57.6523C144.027 57.7229 143.987 57.8186 143.987 57.9184V114.744C143.987 114.794 143.997 114.843 144.016 114.888C144.035 114.934 144.062 114.976 144.097 115.011C144.133 115.046 144.174 115.073 144.22 115.092C144.266 115.111 144.315 115.121 144.364 115.121Z" fill="white"/>
<path d="M119.454 69.961H119.453C119.353 69.9606 119.257 69.9207 119.187 69.8498C119.116 69.779 119.077 69.6832 119.077 69.5834L119.266 12.0047C119.266 11.9051 119.306 11.8097 119.377 11.7394C119.447 11.6691 119.543 11.6297 119.643 11.6296H119.644C119.745 11.63 119.84 11.67 119.911 11.7408C119.981 11.8116 120.021 11.9074 120.021 12.0073L119.832 69.5859C119.831 69.6855 119.792 69.7809 119.721 69.8512C119.65 69.9215 119.554 69.961 119.454 69.961Z" fill="#3F3D56"/>
<path d="M71.1443 152.378H71.143C71.0429 152.377 70.9471 152.337 70.8765 152.266C70.806 152.196 70.7666 152.1 70.7668 152L70.9556 95.9266C70.9559 95.827 70.9958 95.7316 71.0666 95.6613C71.1373 95.591 71.2331 95.5515 71.333 95.5515H71.3343C71.4344 95.5519 71.5302 95.5918 71.6008 95.6627C71.6713 95.7335 71.7107 95.8293 71.7104 95.9291L71.5217 152.002C71.5214 152.102 71.4815 152.197 71.4107 152.268C71.34 152.338 71.2442 152.378 71.1443 152.378Z" fill="#3F3D56"/>
<path d="M35.2891 80.4982H35.2878C35.1877 80.4979 35.0918 80.4579 35.0213 80.3871C34.9507 80.3163 34.9113 80.2204 34.9116 80.1206L35.1004 23.2946C35.1007 23.195 35.1407 23.0996 35.2114 23.0293C35.2821 22.9591 35.3779 22.9196 35.4778 22.9196H35.4791C35.5792 22.9199 35.675 22.9599 35.7456 23.0307C35.8161 23.1015 35.8555 23.1974 35.8552 23.2972L35.6665 80.1232C35.6661 80.2228 35.6262 80.3181 35.5555 80.3884C35.4847 80.4587 35.3889 80.4982 35.2891 80.4982Z" fill="#3F3D56"/>
<path d="M19.7049 95.6265C20.4318 91.7138 24.8933 89.9094 28.5084 90.2159C33.6746 90.6539 37.9863 94.0454 42.7946 95.6442C45.1181 96.4169 47.618 96.8409 50.0529 96.3963C51.9724 96.0021 53.7522 95.1062 55.2101 93.8003C58.0057 91.4178 59.8958 88.1684 62.6936 85.7885C64.1898 84.4452 66.0823 83.6213 68.0874 83.4403C70.5561 83.2767 72.9736 84.1109 75.1374 85.229C79.4361 87.4502 82.9551 90.9844 87.5335 92.6987C89.6358 93.5068 91.9161 93.7417 94.1396 93.3792C96.3589 92.9383 98.4692 92.065 100.349 90.8095C104.291 88.3262 107.54 84.8804 111.685 82.7025C113.723 81.6316 115.988 80.8124 118.316 80.7963C120.566 80.7992 122.73 81.6627 124.36 83.209C127.499 86.0544 129.974 90.546 134.769 90.6249C135.769 90.6433 136.753 90.374 137.603 89.8492C138.222 89.4677 137.654 88.4907 137.032 88.8743C135.077 90.0794 132.724 89.3189 130.942 88.1502C129.045 86.9056 127.699 85.0032 126.151 83.3824C124.613 81.7722 122.818 80.4161 120.606 79.9137C118.395 79.4782 116.106 79.6689 113.999 80.4642C109.47 82.0376 106.042 85.2763 102.283 88.0941C98.5782 90.871 94.2531 93.2738 89.4735 92.1172C84.7144 90.9657 81.1041 87.3723 76.9881 84.9602C73.0093 82.6286 68.132 81.1397 63.8475 83.593C60.61 85.4468 58.5631 88.7208 56.0766 91.3878C54.8497 92.7038 53.4815 93.927 51.8241 94.6746C49.5212 95.7133 46.9185 95.5922 44.5198 94.9765C39.5159 93.6921 35.2955 90.3326 30.2002 89.3277C26.4182 88.5818 21.9418 89.5217 19.6334 92.8554C19.123 93.5984 18.7753 94.4404 18.6131 95.3264C18.4811 96.0366 19.5722 96.3411 19.7049 95.6265L19.7049 95.6265Z" fill="#3F3D56"/>
<path d="M35.4778 98.0917C38.1876 98.0917 40.3843 95.9014 40.3843 93.1994C40.3843 90.4975 38.1876 88.3071 35.4778 88.3071C32.768 88.3071 30.5713 90.4975 30.5713 93.1994C30.5713 95.9014 32.768 98.0917 35.4778 98.0917Z" fill="#D94B4B"/>
<path d="M70.7668 87.7426C73.4766 87.7426 75.6733 85.5523 75.6733 82.8503C75.6733 80.1484 73.4766 77.958 70.7668 77.958C68.0571 77.958 65.8603 80.1484 65.8603 82.8503C65.8603 85.5523 68.0571 87.7426 70.7668 87.7426Z" fill="#D94B4B"/>
<path d="M119.077 84.3557C121.787 84.3557 123.984 82.1653 123.984 79.4634C123.984 76.7614 121.787 74.571 119.077 74.571C116.367 74.571 114.171 76.7614 114.171 79.4634C114.171 82.1653 116.367 84.3557 119.077 84.3557Z" fill="#D94B4B"/>
<path d="M76.9891 166.709H66.2271C65.6351 166.709 65.0632 166.495 64.6164 166.108C64.1695 165.721 63.8778 165.186 63.7946 164.602C63.1301 159.726 63.1301 154.783 63.7946 149.907C63.8765 149.331 64.1613 148.803 64.598 148.417C65.0348 148.031 65.5951 147.812 66.1786 147.8C69.683 145.924 73.3353 145.923 77.0354 147.8C77.3885 147.806 77.736 147.889 78.0538 148.042C78.3715 148.196 78.6519 148.416 78.8754 148.689C79.1094 148.974 79.2769 149.307 79.3656 149.664C79.4544 150.022 79.4621 150.394 79.3884 150.755C78.5239 155.045 78.5239 159.464 79.3884 163.754C79.4621 164.115 79.4544 164.487 79.3656 164.845C79.2769 165.202 79.1094 165.535 78.8754 165.82C78.6469 166.099 78.3591 166.323 78.0329 166.477C77.7066 166.631 77.3501 166.71 76.9891 166.709Z" fill="#D94B4B"/>
<path d="M126.432 20.044H115.67C115.078 20.0436 114.506 19.8302 114.059 19.4431C113.612 19.056 113.32 18.5211 113.237 17.9367C112.573 13.0609 112.573 8.11779 113.237 3.24195C113.319 2.66458 113.605 2.13532 114.043 1.74917C114.482 1.36302 115.043 1.14527 115.628 1.13501C119.014 -0.378399 122.661 -0.378214 126.469 1.13483C126.823 1.13952 127.173 1.22155 127.492 1.37516C127.811 1.52878 128.093 1.75024 128.318 2.02402C128.552 2.30883 128.719 2.64205 128.808 2.99948C128.897 3.3569 128.905 3.72956 128.831 4.09035C127.966 8.38013 127.966 12.7985 128.831 17.0883C128.905 17.4491 128.897 17.8217 128.808 18.1792C128.719 18.5366 128.552 18.8698 128.318 19.1546C128.089 19.4332 127.802 19.6576 127.475 19.8115C127.149 19.9653 126.792 20.0447 126.432 20.044Z" fill="#D94B4B"/>
<path d="M40.6521 29.817H29.89C29.5291 29.8178 29.1725 29.7383 28.8462 29.5845C28.52 29.4307 28.2322 29.2063 28.0038 28.9276C27.7697 28.6428 27.6022 28.3096 27.5135 27.9522C27.4247 27.5948 27.417 27.2221 27.4907 26.8613C28.3552 22.5715 28.3552 18.1531 27.4907 13.8634C27.417 13.5025 27.4247 13.1299 27.5135 12.7724C27.6022 12.415 27.7697 12.0817 28.0038 11.7969C28.2274 11.5241 28.508 11.3033 28.8261 11.1497C29.1441 10.9962 29.4919 10.9137 29.8452 10.908C33.117 9.31028 36.7652 9.31028 40.6898 10.908C41.2752 10.9174 41.838 11.1347 42.277 11.521C42.7159 11.9072 43.0022 12.437 43.0843 13.015C43.7488 17.8907 43.7488 22.8338 43.0843 27.7095C43.0013 28.2939 42.7096 28.8289 42.2628 29.216C41.8159 29.6032 41.244 29.8166 40.6521 29.817Z" fill="#CCCCCC"/>
<path d="M125.305 6.73739H116.246C116.096 6.73739 115.952 6.67792 115.846 6.57205C115.74 6.46619 115.68 6.32261 115.68 6.1729C115.68 6.02318 115.74 5.8796 115.846 5.77373C115.952 5.66787 116.096 5.6084 116.246 5.6084H125.305C125.455 5.6084 125.599 5.66787 125.705 5.77373C125.811 5.8796 125.871 6.02318 125.871 6.1729C125.871 6.32261 125.811 6.46619 125.705 6.57205C125.599 6.67792 125.455 6.73739 125.305 6.73739Z" fill="white"/>
<path d="M125.305 11.2534H116.246C116.096 11.2534 115.952 11.1939 115.846 11.088C115.74 10.9822 115.68 10.8386 115.68 10.6889C115.68 10.5392 115.74 10.3956 115.846 10.2897C115.952 10.1839 116.096 10.1244 116.246 10.1244H125.305C125.455 10.1244 125.599 10.1839 125.705 10.2897C125.811 10.3956 125.871 10.5392 125.871 10.6889C125.871 10.8386 125.811 10.9822 125.705 11.088C125.599 11.1939 125.455 11.2534 125.305 11.2534Z" fill="white"/>
<path d="M125.305 15.7693H116.246C116.096 15.7693 115.952 15.7098 115.846 15.6039C115.74 15.498 115.68 15.3545 115.68 15.2048C115.68 15.055 115.74 14.9115 115.846 14.8056C115.952 14.6997 116.096 14.6403 116.246 14.6403H125.305C125.455 14.6403 125.599 14.6997 125.705 14.8056C125.811 14.9115 125.871 15.055 125.871 15.2048C125.871 15.3545 125.811 15.498 125.705 15.6039C125.599 15.7098 125.455 15.7693 125.305 15.7693Z" fill="white"/>
<path d="M40.8167 15.7693H31.7585C31.6084 15.7693 31.4644 15.7098 31.3582 15.6039C31.252 15.498 31.1924 15.3545 31.1924 15.2048C31.1924 15.055 31.252 14.9115 31.3582 14.8056C31.4644 14.6997 31.6084 14.6403 31.7585 14.6403H40.8167C40.9668 14.6403 41.1108 14.6997 41.217 14.8056C41.3232 14.9115 41.3828 15.055 41.3828 15.2048C41.3828 15.3545 41.3232 15.498 41.217 15.6039C41.1108 15.7098 40.9668 15.7693 40.8167 15.7693Z" fill="white"/>
<path d="M40.8167 20.2852H31.7585C31.6084 20.2852 31.4644 20.2258 31.3582 20.1199C31.252 20.014 31.1924 19.8705 31.1924 19.7207C31.1924 19.571 31.252 19.4274 31.3582 19.3216C31.4644 19.2157 31.6084 19.1562 31.7585 19.1562H40.8167C40.9668 19.1562 41.1108 19.2157 41.217 19.3216C41.3232 19.4274 41.3828 19.571 41.3828 19.7207C41.3828 19.8705 41.3232 20.014 41.217 20.1199C41.1108 20.2258 40.9668 20.2852 40.8167 20.2852Z" fill="white"/>
<path d="M40.8167 24.8012H31.7585C31.6084 24.8012 31.4644 24.7418 31.3582 24.6359C31.252 24.53 31.1924 24.3865 31.1924 24.2367C31.1924 24.087 31.252 23.9434 31.3582 23.8376C31.4644 23.7317 31.6084 23.6722 31.7585 23.6722H40.8167C40.9668 23.6722 41.1108 23.7317 41.217 23.8376C41.3232 23.9434 41.3828 24.087 41.3828 24.2367C41.3828 24.3865 41.3232 24.53 41.217 24.6359C41.1108 24.7418 40.9668 24.8012 40.8167 24.8012Z" fill="white"/>
<path d="M76.2945 152.378H67.2363C67.0861 152.378 66.9422 152.318 66.836 152.212C66.7298 152.106 66.6702 151.963 66.6702 151.813C66.6702 151.663 66.7298 151.52 66.836 151.414C66.9422 151.308 67.0861 151.249 67.2363 151.249H76.2945C76.4446 151.249 76.5886 151.308 76.6948 151.414C76.8009 151.52 76.8606 151.663 76.8606 151.813C76.8606 151.963 76.8009 152.106 76.6948 152.212C76.5886 152.318 76.4446 152.378 76.2945 152.378Z" fill="white"/>
<path d="M76.2945 156.894H67.2363C67.0861 156.894 66.9422 156.834 66.836 156.728C66.7298 156.622 66.6702 156.479 66.6702 156.329C66.6702 156.179 66.7298 156.036 66.836 155.93C66.9422 155.824 67.0861 155.765 67.2363 155.765H76.2945C76.4446 155.765 76.5886 155.824 76.6948 155.93C76.8009 156.036 76.8606 156.179 76.8606 156.329C76.8606 156.479 76.8009 156.622 76.6948 156.728C76.5886 156.834 76.4446 156.894 76.2945 156.894Z" fill="white"/>
<path d="M76.2945 161.409H67.2363C67.0861 161.409 66.9422 161.35 66.836 161.244C66.7298 161.138 66.6702 160.995 66.6702 160.845C66.6702 160.695 66.7298 160.552 66.836 160.446C66.9422 160.34 67.0861 160.281 67.2363 160.281H76.2945C76.4446 160.281 76.5886 160.34 76.6948 160.446C76.8009 160.552 76.8606 160.695 76.8606 160.845C76.8606 160.995 76.8009 161.138 76.6948 161.244C76.5886 161.35 76.4446 161.409 76.2945 161.409Z" fill="white"/>
<path d="M254.391 135.333L229.187 129.649L219.849 151.248L217.207 195.279L224.091 231.031H237.885L231.549 195.279L233.059 168.183L240.132 200.723L258.873 227.72L267.521 220.273L252.685 194.903C252.685 194.903 258.896 149.358 252.307 141.464L254.391 135.333Z" fill="#2A9F28"/>
<path d="M239.351 92.4408L241.371 91.6847L243.917 87.5793L252.987 88.3184L255.192 92.7203L260.503 96.7644L258.18 108.961L254.572 123.776L230.417 120.766L230.442 109.613C230.442 109.613 226.077 100.802 233.128 97.5001L239.351 92.4408Z" fill="#E6E6E6"/>
<path d="M202.119 131.126C202.588 131.314 203.092 131.397 203.597 131.369C204.101 131.342 204.593 131.204 205.039 130.966C205.484 130.728 205.872 130.395 206.174 129.992C206.477 129.588 206.687 129.124 206.79 128.631L233.723 112.381L228.8 106.717L203.874 124.471C203.031 124.354 202.175 124.548 201.467 125.018C200.759 125.488 200.248 126.201 200.032 127.021C199.815 127.842 199.908 128.713 200.293 129.469C200.678 130.226 201.327 130.816 202.119 131.126V131.126Z" fill="#A0616A"/>
<path d="M242.697 104.675C242.697 104.675 243.984 105.966 240.755 108.09C238.169 109.79 226.637 118.19 222.548 119.518C222.6 120.117 222.449 120.716 222.122 121.22C221.794 121.724 221.308 122.106 220.739 122.304L217.037 114.193C217.838 112.339 219.12 112.768 219.794 113.189L224.265 109.837L235.242 98.9064L241.783 103.725L242.697 104.675Z" fill="#E6E6E6"/>
<path d="M201.421 132.441H190.659C190.298 132.442 189.942 132.363 189.615 132.209C189.289 132.055 189.001 131.831 188.773 131.552C188.539 131.267 188.371 130.934 188.283 130.577C188.194 130.219 188.186 129.847 188.26 129.486C189.124 125.196 189.124 120.778 188.26 116.488C188.186 116.127 188.194 115.754 188.283 115.397C188.371 115.039 188.539 114.706 188.773 114.421C188.997 114.148 189.277 113.928 189.595 113.774C189.913 113.621 190.261 113.538 190.614 113.532C193.886 111.935 197.534 111.935 201.459 113.532C202.044 113.542 202.607 113.759 203.046 114.145C203.485 114.532 203.771 115.061 203.853 115.639C204.518 120.515 204.518 125.458 203.853 130.334C203.77 130.918 203.479 131.453 203.032 131.84C202.585 132.228 202.013 132.441 201.421 132.441Z" fill="#D94B4B"/>
<path d="M201.586 118.394H192.528C192.378 118.394 192.234 118.334 192.127 118.228C192.021 118.122 191.962 117.979 191.962 117.829C191.962 117.679 192.021 117.536 192.127 117.43C192.234 117.324 192.378 117.265 192.528 117.265H201.586C201.736 117.265 201.88 117.324 201.986 117.43C202.092 117.536 202.152 117.679 202.152 117.829C202.152 117.979 202.092 118.122 201.986 118.228C201.88 118.334 201.736 118.394 201.586 118.394Z" fill="white"/>
<path d="M201.586 122.91H192.528C192.378 122.91 192.234 122.85 192.127 122.744C192.021 122.638 191.962 122.495 191.962 122.345C191.962 122.195 192.021 122.052 192.127 121.946C192.234 121.84 192.378 121.781 192.528 121.781H201.586C201.736 121.781 201.88 121.84 201.986 121.946C202.092 122.052 202.152 122.195 202.152 122.345C202.152 122.495 202.092 122.638 201.986 122.744C201.88 122.85 201.736 122.91 201.586 122.91Z" fill="white"/>
<path d="M201.586 127.426H192.528C192.378 127.426 192.234 127.366 192.127 127.26C192.021 127.154 191.962 127.011 191.962 126.861C191.962 126.711 192.021 126.568 192.127 126.462C192.234 126.356 192.378 126.297 192.528 126.297H201.586C201.736 126.297 201.88 126.356 201.986 126.462C202.092 126.568 202.152 126.711 202.152 126.861C202.152 127.011 202.092 127.154 201.986 127.26C201.88 127.366 201.736 127.426 201.586 127.426Z" fill="white"/>
<path d="M253.506 164.806H242.744C242.383 164.807 242.026 164.727 241.7 164.573C241.374 164.42 241.086 164.195 240.857 163.917C240.623 163.632 240.456 163.299 240.367 162.941C240.278 162.584 240.27 162.211 240.344 161.85C241.209 157.56 241.209 153.142 240.344 148.852C240.27 148.491 240.278 148.119 240.367 147.761C240.456 147.404 240.623 147.071 240.857 146.786C241.081 146.513 241.362 146.292 241.68 146.139C241.998 145.985 242.345 145.903 242.699 145.897C245.971 144.299 249.619 144.299 253.543 145.897C254.129 145.906 254.692 146.124 255.13 146.51C255.569 146.896 255.856 147.426 255.938 148.004C256.602 152.88 256.602 157.823 255.938 162.698C255.855 163.283 255.563 163.818 255.116 164.205C254.669 164.592 254.098 164.805 253.506 164.806Z" fill="#CCCCCC"/>
<path d="M253.67 150.758H244.612C244.462 150.758 244.318 150.699 244.212 150.593C244.106 150.487 244.046 150.343 244.046 150.194C244.046 150.044 244.106 149.9 244.212 149.794C244.318 149.689 244.462 149.629 244.612 149.629H253.67C253.82 149.629 253.964 149.689 254.071 149.794C254.177 149.9 254.236 150.044 254.236 150.194C254.236 150.343 254.177 150.487 254.071 150.593C253.964 150.699 253.82 150.758 253.67 150.758Z" fill="white"/>
<path d="M253.67 155.274H244.612C244.462 155.274 244.318 155.215 244.212 155.109C244.106 155.003 244.046 154.859 244.046 154.71C244.046 154.56 244.106 154.416 244.212 154.31C244.318 154.205 244.462 154.145 244.612 154.145H253.67C253.82 154.145 253.964 154.205 254.071 154.31C254.177 154.416 254.236 154.56 254.236 154.71C254.236 154.859 254.177 155.003 254.071 155.109C253.964 155.215 253.82 155.274 253.67 155.274Z" fill="white"/>
<path d="M253.67 159.79H244.612C244.462 159.79 244.318 159.731 244.212 159.625C244.106 159.519 244.046 159.375 244.046 159.226C244.046 159.076 244.106 158.932 244.212 158.826C244.318 158.721 244.462 158.661 244.612 158.661H253.67C253.82 158.661 253.964 158.721 254.071 158.826C254.177 158.932 254.236 159.076 254.236 159.226C254.236 159.375 254.177 159.519 254.071 159.625C253.964 159.731 253.82 159.79 253.67 159.79Z" fill="white"/>
<path d="M248.728 148.647C249.199 148.464 249.624 148.181 249.973 147.817C250.322 147.453 250.587 147.017 250.749 146.539C250.911 146.062 250.966 145.555 250.91 145.055C250.855 144.554 250.689 144.071 250.427 143.641L258.947 113.424L251.471 112.646L245.447 142.593C244.751 143.081 244.259 143.807 244.065 144.633C243.87 145.458 243.986 146.327 244.39 147.073C244.795 147.819 245.46 148.391 246.259 148.682C247.058 148.972 247.937 148.959 248.728 148.647Z" fill="#A0616A"/>
<path d="M260.207 96.8371C260.207 96.8371 262.032 96.9024 261.13 100.653C260.408 103.656 257.756 122.494 255.683 126.25C256.131 126.652 256.432 127.192 256.538 127.783C256.645 128.375 256.551 128.985 256.271 129.517L248.01 126.119C247.324 124.22 247.855 122.495 248.635 122.342L249.601 116.849L251.023 98.4185L258.889 96.7665L260.207 96.8371Z" fill="#E6E6E6"/>
<path d="M253.464 62.6C254.715 64.44 255.523 66.543 255.825 68.7452C256.127 70.9474 255.916 73.1895 255.207 75.2969" fill="#FD6584"/>
<path d="M297.531 246.552C297.532 246.611 297.52 246.669 297.498 246.724C297.475 246.778 297.442 246.828 297.4 246.869C297.359 246.911 297.309 246.944 297.254 246.966C297.2 246.989 297.141 247 297.082 247H191.294C191.235 247 191.177 246.988 191.122 246.966C191.068 246.943 191.018 246.91 190.977 246.869C190.935 246.827 190.902 246.778 190.879 246.724C190.857 246.669 190.845 246.611 190.845 246.552C190.845 246.493 190.857 246.435 190.879 246.381C190.902 246.326 190.935 246.277 190.977 246.236C191.018 246.194 191.068 246.161 191.122 246.138C191.177 246.116 191.235 246.104 191.294 246.104H297.082C297.141 246.104 297.2 246.116 297.254 246.138C297.309 246.161 297.359 246.194 297.4 246.235C297.442 246.277 297.475 246.326 297.498 246.381C297.52 246.435 297.532 246.493 297.531 246.552Z" fill="#CCCCCC"/>
</g>
<defs>
<clipPath id="clip0_20_165">
<rect width="307" height="247" fill="white"/>
</clipPath>
</defs>
</svg>
