<svg  viewBox="0 0 315 275" fill="none" xmlns="http://www.w3.org/2000/svg">
<g clip-path="url(#clip0_20_65)">
<path d="M298.017 248.217L298.504 237.279C303.581 234.568 309.244 233.136 315 233.108C307.077 239.578 308.068 252.051 302.696 260.752C301 263.453 298.717 265.738 296.017 267.438C293.316 269.138 290.268 270.209 287.097 270.572L280.467 274.627C279.557 269.561 279.758 264.358 281.055 259.376C282.352 254.395 284.714 249.754 287.98 245.772C289.834 243.557 291.96 241.584 294.308 239.899C295.896 244.081 298.017 248.217 298.017 248.217Z" fill="#F2F2F2"/>
<path d="M258.648 273.963C273.322 273.963 285.218 262.08 285.218 247.422C285.218 232.763 273.322 220.88 258.648 220.88C243.974 220.88 232.078 232.763 232.078 247.422C232.078 262.08 243.974 273.963 258.648 273.963Z" fill="#D94B4B"/>
<path d="M247.805 237.04C247.44 238.997 246.842 240.904 246.023 242.719C241.336 252.624 254.684 249.395 259.454 249.395C264.669 249.395 269.659 252.135 268.897 239.962C268.571 234.763 264.669 230.529 259.454 230.529C254.999 230.529 248.736 232.507 247.805 237.04Z" fill="#2F2E41"/>
<path d="M258.672 249.393C262.91 249.393 266.346 245.961 266.346 241.727C266.346 237.494 262.91 234.062 258.672 234.062C254.435 234.062 250.999 237.494 250.999 241.727C250.999 245.961 254.435 249.393 258.672 249.393Z" fill="#FFB6B6"/>
<path d="M253.461 233.914C254.806 233.095 256.346 232.652 257.921 232.631C259.496 232.61 261.047 233.013 262.413 233.796C263.778 234.579 264.909 235.714 265.685 237.083C266.461 238.452 266.855 240.004 266.825 241.577C262.915 242.557 258.807 243.308 254.637 241.811L253.653 239.404L253.072 241.813C251.802 242.331 250.529 242.77 249.256 241.808C249.204 240.24 249.565 238.685 250.303 237.3C251.041 235.914 252.13 234.747 253.461 233.914V233.914Z" fill="#2F2E41"/>
<path d="M279.307 265.07C274.704 270.302 268.226 273.516 261.271 274.018C254.316 274.521 247.443 272.27 242.135 267.754L244.413 261.402C244.928 260.273 245.741 259.306 246.764 258.604C247.788 257.903 248.983 257.492 250.222 257.417L251.672 257.328L255.129 254.35C255.129 254.35 264.444 254.017 264.306 253.858L269.948 257.249L269.943 257.225L272.161 257.361C273.4 257.436 274.596 257.846 275.619 258.548C276.642 259.25 277.455 260.217 277.97 261.345L279.307 265.07Z" fill="#2A9F28"/>
<path d="M53.1393 60.3386C53.13 65.588 51.5626 70.7168 48.6354 75.0764C45.7081 79.4359 41.5524 82.8305 36.6939 84.8308C31.8354 86.831 26.4922 87.3472 21.34 86.3139C16.1878 85.2807 11.458 82.7445 7.7488 79.026C4.03956 75.3075 1.51745 70.5738 0.501393 65.4234C-0.514664 60.273 0.0209709 54.9373 2.04057 50.0911C4.06017 45.2448 7.47302 41.1056 11.8476 38.1969C16.2221 35.2882 21.3618 33.7407 26.6168 33.75C30.1085 33.7471 33.5664 34.4336 36.7917 35.7699C40.017 37.1063 42.9461 39.0662 45.4108 41.537C47.8754 44.0077 49.827 46.9407 51.1533 50.1673C52.4796 53.3939 53.1546 56.8506 53.1393 60.3386V60.3386Z" fill="#F2F2F2"/>
<path d="M14.2549 51.6576C15.3535 48.1599 17.8519 44.952 21.307 43.7696C24.7624 42.5872 29.8219 44.3884 32.4196 46.9745C37.1712 51.7051 38.3308 67.9563 35.0662 73.0919C34.4169 73.0576 32.1763 73.0322 31.5191 73.0076L30.5894 69.9122V72.9771C29.5424 72.9448 28.4872 72.9224 27.4238 72.9101C23.8584 72.866 20.449 71.4427 17.9124 68.9394C15.3758 66.4362 13.9095 63.0481 13.8218 59.4873C13.7368 56.0808 13.8219 53.0359 14.2549 51.6576Z" fill="#CCCCCC"/>
<path d="M26.1756 63.2496C30.3576 63.2496 33.7478 59.863 33.7478 55.6854C33.7478 51.5078 30.3576 48.1212 26.1756 48.1212C21.9936 48.1212 18.6034 51.5078 18.6034 55.6854C18.6034 59.863 21.9936 63.2496 26.1756 63.2496Z" fill="#CCCCCC"/>
<path d="M19.6406 49.0422L28.3592 44.6812C30.1417 45.4836 31.6768 46.7477 32.8054 48.3425C33.934 49.9373 34.6149 51.8046 34.7775 53.7509L34.9948 56.3512L31.3439 55.4228L30.9439 52.0978L30.3239 55.1634L28.6391 54.7352L28.6551 49.5732L26.9692 54.7315L20.9515 53.3504L19.6406 49.0422Z" fill="#CCCCCC"/>
<path d="M46.2861 77.8557C41.683 83.0878 35.2048 86.3018 28.2501 86.8039C21.2953 87.306 14.4218 85.0559 9.11343 80.5393L11.3924 74.187C11.9074 73.0588 12.7201 72.0919 13.7434 71.3899C14.7667 70.688 15.9619 70.2775 17.201 70.2026L18.6508 70.1136L22.1078 67.1352C22.1078 67.1352 31.4227 66.803 31.2845 66.6439L36.9268 70.0341L36.9221 70.0107L39.1401 70.1464C40.3793 70.221 41.5747 70.6314 42.598 71.3333C43.6214 72.0353 44.434 73.0024 44.9487 74.1309L46.2861 77.8557Z" fill="#CCCCCC"/>
<path d="M26.7588 208.73C41.4328 208.73 53.3285 196.847 53.3285 182.189C53.3285 167.53 41.4328 155.647 26.7588 155.647C12.0848 155.647 0.189148 167.53 0.189148 182.189C0.189148 196.847 12.0848 208.73 26.7588 208.73Z" fill="#F2F2F2"/>
<path d="M15.9153 171.807C15.5506 173.764 14.9527 175.671 14.1342 177.486C9.44724 187.39 22.7947 184.162 27.5646 184.162C32.7799 184.162 37.7698 186.902 37.0076 174.729C36.6821 169.529 32.7799 165.296 27.5646 165.296C23.11 165.296 16.8468 167.274 15.9153 171.807Z" fill="#CCCCCC"/>
<path d="M26.7832 184.16C31.0212 184.16 34.4568 180.728 34.4568 176.494C34.4568 172.261 31.0212 168.829 26.7832 168.829C22.5453 168.829 19.1097 172.261 19.1097 176.494C19.1097 180.728 22.5453 184.16 26.7832 184.16Z" fill="#CCCCCC"/>
<path d="M21.5722 168.681C22.9168 167.862 24.457 167.419 26.0317 167.398C27.6063 167.377 29.1576 167.779 30.5234 168.563C31.8892 169.346 33.0193 170.481 33.7955 171.85C34.5717 173.219 34.9655 174.771 34.9357 176.344C31.0257 177.324 26.9179 178.075 22.7481 176.578L21.7634 174.171L21.1828 176.58C19.913 177.098 18.6399 177.537 17.3667 176.575C17.3147 175.007 17.6758 173.452 18.4138 172.067C19.1518 170.681 20.2409 169.514 21.5722 168.681Z" fill="#CCCCCC"/>
<path d="M47.418 199.837C42.8149 205.069 36.3367 208.283 29.382 208.785C22.4272 209.288 15.5537 207.037 10.2453 202.521L12.5242 196.169C13.0392 195.04 13.852 194.073 14.8752 193.371C15.8985 192.669 17.0938 192.259 18.3328 192.184L19.7826 192.095L23.2397 189.117C23.2397 189.117 32.5546 188.784 32.4164 188.625L38.0587 192.016L38.054 191.992L40.272 192.128C41.5111 192.203 42.7066 192.613 43.7299 193.315C44.7532 194.017 45.5659 194.984 46.0806 196.112L47.418 199.837Z" fill="#CCCCCC"/>
<path d="M141.069 184.473C164.827 184.473 184.087 165.233 184.087 141.5C184.087 117.766 164.827 98.5266 141.069 98.5266C117.31 98.5266 98.0502 117.766 98.0502 141.5C98.0502 165.233 117.31 184.473 141.069 184.473Z" fill="#F2F2F2"/>
<path d="M142.822 145.883C150.569 145.883 156.85 139.61 156.85 131.87C156.85 124.131 150.569 117.858 142.822 117.858C135.075 117.858 128.795 124.131 128.795 131.87C128.795 139.61 135.075 145.883 142.822 145.883Z" fill="#CCCCCC"/>
<path d="M155.173 122.613C155.173 122.613 158.825 115.639 150.79 115.005C150.79 115.005 143.94 108.797 136.958 113.87C136.958 113.87 133.149 113.87 131.067 118.175C131.067 118.175 128.072 117.04 127.413 120.077C127.413 120.077 125.222 126.418 127.413 132.124C129.605 137.831 130.333 138.465 130.333 138.465C130.333 138.465 128.795 131.383 137.562 130.749C146.328 130.115 154.37 124.629 155.101 131.604C155.832 138.579 156.635 135.428 156.635 135.428C156.635 135.428 163.574 125.467 155.173 122.613Z" fill="#CCCCCC"/>
<path d="M173.183 170.074C165.73 178.545 155.241 183.749 143.981 184.562C132.721 185.375 121.592 181.732 112.997 174.419L116.687 164.134C117.521 162.307 118.837 160.742 120.493 159.605C122.15 158.469 124.085 157.804 126.092 157.683L128.439 157.539L134.036 152.717C134.036 152.717 149.118 152.179 148.894 151.921L158.029 157.41L158.022 157.372L161.613 157.592C163.619 157.713 165.555 158.377 167.211 159.514C168.868 160.65 170.184 162.216 171.017 164.043L173.183 170.074Z" fill="#CCCCCC"/>
<path d="M70.2168 141.641C84.8908 141.641 96.7864 129.758 96.7864 115.1C96.7864 100.441 84.8908 88.5582 70.2168 88.5582C55.5427 88.5582 43.6471 100.441 43.6471 115.1C43.6471 129.758 55.5427 141.641 70.2168 141.641Z" fill="#F2F2F2"/>
<path d="M69.4835 118.388C74.1676 118.388 77.9648 114.595 77.9648 109.915C77.9648 105.236 74.1676 101.443 69.4835 101.443C64.7994 101.443 61.0021 105.236 61.0021 109.915C61.0021 114.595 64.7994 118.388 69.4835 118.388Z" fill="#CCCCCC"/>
<path d="M90.1499 132.858C85.5468 138.09 79.0686 141.304 72.1138 141.806C65.159 142.308 58.2856 140.058 52.9772 135.542L55.2561 129.19C55.7711 128.061 56.5838 127.094 57.6071 126.392C58.6304 125.69 59.8257 125.28 61.0647 125.205L62.5145 125.116L65.9716 122.138C65.9716 122.138 75.2864 121.805 75.1482 121.646L80.7905 125.037L80.7858 125.013L83.0039 125.149C84.243 125.223 85.4384 125.634 86.4618 126.336C87.4851 127.038 88.2978 128.005 88.8125 129.133L90.1499 132.858Z" fill="#CCCCCC"/>
<path d="M78.4284 104.661C77.7117 102.099 76.0834 99.8854 73.8491 98.4371C72.0684 97.2994 69.8465 96.7186 67.8293 97.3203C65.812 97.9219 64.1419 99.8995 64.2739 102.036C63.9002 101.938 63.5065 101.946 63.1373 102.06C62.7681 102.174 62.4382 102.389 62.185 102.681C61.6788 103.277 61.3269 103.989 61.1601 104.754C60.5127 107.149 60.5556 109.679 61.2838 112.051L61.2437 112.392C62.2279 112.229 62.9744 111.385 63.4386 110.487C63.9028 109.588 64.1699 108.591 64.673 107.714C65.1762 106.837 66.0116 106.055 67.0083 106.028L66.9205 107.55L69.4929 106.226C69.289 106.713 69.085 107.201 68.881 107.688C69.6299 107.375 70.3787 107.063 71.1276 106.75C71.0439 107.219 70.9602 107.687 70.8765 108.156C71.0728 107.749 71.3498 107.386 71.6905 107.09C72.0313 106.793 72.4288 106.568 72.859 106.429C73.2892 106.29 73.7431 106.24 74.1933 106.281C74.6436 106.322 75.0807 106.455 75.4783 106.67C76.3739 107.272 77.0194 108.179 77.2942 109.221C77.5661 110.262 77.7121 111.331 77.729 112.406C78.8862 109.992 79.1344 107.243 78.4284 104.661V104.661Z" fill="#CCCCCC"/>
<path d="M126.602 136.477V136.493C126.578 136.435 126.562 136.374 126.554 136.311L126.602 136.477Z" fill="#F2F2F2"/>
<path d="M126.602 136.493C126.641 136.659 126.689 136.824 126.736 136.982C126.671 137 126.605 137.013 126.538 137.022L126.602 136.493Z" fill="#F2F2F2"/>
<path d="M184.087 141.411C184.085 152.515 179.781 163.187 172.075 171.191C164.37 179.194 153.862 183.907 142.755 184.341V98.481C153.863 98.9132 164.372 103.625 172.078 111.629C179.784 119.633 184.087 130.306 184.087 141.411V141.411Z" fill="#D94B4B"/>
<path d="M126.554 136.311L126.602 136.477V136.493C126.578 136.435 126.562 136.374 126.554 136.311V136.311Z" fill="#FFB6B6"/>
<path d="M153.614 133.019C153.616 134.153 153.475 135.283 153.195 136.382V136.39C152.563 138.869 151.251 141.122 149.407 142.897C147.562 144.671 145.259 145.895 142.755 146.432V119.599C145.828 120.259 148.582 121.951 150.558 124.393C152.534 126.835 153.612 129.879 153.614 133.019Z" fill="#A0616A"/>
<path d="M173.339 170.163C169.499 174.538 164.807 178.086 159.548 180.589C154.29 183.092 148.576 184.497 142.755 184.72V152.456C146.114 152.298 149.156 152.132 149.054 152.013L158.189 157.5L158.181 157.461L161.769 157.682C163.776 157.801 165.712 158.464 167.369 159.601C169.026 160.737 170.341 162.304 171.174 164.131L173.252 169.918L173.339 170.163Z" fill="#2A9F28"/>
<path d="M126.602 136.493C126.641 136.659 126.689 136.824 126.736 136.982C126.671 137 126.605 137.013 126.538 137.022L126.602 136.493Z" fill="#2F2E41"/>
<path d="M153.234 137.046C153.218 136.824 153.21 136.611 153.195 136.39V136.382C153.149 134.864 152.926 133.357 152.531 131.89C152.017 130.233 151.053 128.646 149.591 127.762C147.402 126.435 144.328 127.154 142.755 129.143V112.588C144.243 112.977 145.66 113.601 146.951 114.436C150.569 116.779 153.205 120.361 154.364 124.509C155.506 128.688 155.105 133.138 153.234 137.046Z" fill="#2F2E41"/>
<path d="M142.164 275C142.027 275.007 141.894 274.959 141.792 274.868C141.691 274.776 141.63 274.649 141.622 274.512V0.487574C141.636 0.353794 141.699 0.229924 141.799 0.13988C141.899 0.0498351 142.029 0 142.164 0C142.298 0 142.428 0.0498351 142.528 0.13988C142.628 0.229924 142.691 0.353794 142.705 0.487574V274.512C142.698 274.649 142.637 274.776 142.535 274.868C142.434 274.959 142.3 275.007 142.164 275V275Z" fill="#2F2E41"/>
<path d="M196.131 128.088L181.166 124.421L161.215 107.477L164.537 102.208L182.611 113.71C182.611 113.71 194.568 116.742 198.658 120.239L196.131 128.088Z" fill="#FFB6B6"/>
<path d="M161.909 107.797C163.923 107.797 165.555 106.167 165.555 104.156C165.555 102.144 163.923 100.514 161.909 100.514C159.896 100.514 158.264 102.144 158.264 104.156C158.264 106.167 159.896 107.797 161.909 107.797Z" fill="#FFB6B6"/>
<path d="M196.833 118.282L182.956 112.63L176.286 120.542L181.241 124.62L194.749 128.126L194.758 128.162C195.707 131.655 201.807 134.026 206.757 135.4C208.39 135.852 210.134 135.668 211.636 134.884C213.137 134.101 214.286 132.778 214.848 131.181V131.181C215.255 130.001 215.323 128.73 215.045 127.513C214.767 126.296 214.153 125.181 213.274 124.294L208.778 119.791L196.833 118.282Z" fill="#E6E6E6"/>
<path d="M158.463 260.349L153.599 258.5L158.422 238.882L165.6 241.611L158.463 260.349Z" fill="#FFB6B6"/>
<path d="M160.307 259.235L158.938 258.714L154.421 254.512L150.73 255.594L150.729 255.594C149.11 254.979 147.313 255.031 145.733 255.74C144.153 256.448 142.919 257.755 142.303 259.372L142.228 259.57L157.909 265.53L160.307 259.235Z" fill="#2F2E41"/>
<path d="M207.625 268.494L202.422 268.494L199.947 248.444L207.626 248.445L207.625 268.494Z" fill="#FFB6B6"/>
<path d="M208.953 266.797L207.488 266.797L201.77 264.474L198.705 266.797H198.705C196.973 266.797 195.312 267.484 194.087 268.707C192.863 269.931 192.175 271.59 192.174 273.32V273.532L208.953 273.533L208.953 266.797Z" fill="#2F2E41"/>
<path d="M215.56 182.134C215.56 182.134 216.168 189.418 214.649 196.398C213.696 200.773 213.341 210.13 213.209 216.504C213.13 220.299 211.421 220.903 211.421 220.903L212.554 229.629L209.788 261.342L199.762 260.432L197.028 196.398L179.009 210.631L179.509 212.295C179.752 213.105 177.959 213.001 177.242 213.449L175.474 217.546C175.509 218.224 175.335 218.895 174.976 219.471C174.616 220.046 174.089 220.498 173.465 220.765L164.075 248.67L156.753 244.282L159.194 218.927L162.611 207.225L176.37 190.328L176.673 185.472L178.041 185.528L178.737 183.5L180.015 180.01L215.56 182.134Z" fill="#2F2E41"/>
<path d="M216.085 183.664L216.139 183.588C219.031 179.544 214.682 169.826 214.026 168.417C214.805 168.164 215.472 167.65 215.914 166.961C216.356 166.272 216.545 165.452 216.449 164.639L216.167 162.238L215.872 159.883L217.983 157.774L217.989 157.721L219.205 147.099L220.971 140.044C221.637 137.377 221.58 134.581 220.807 131.943C220.034 129.306 218.571 126.921 216.571 125.034L212.487 121.187L207.523 113.851H199.519L196.774 119.029C194.114 119.644 191.753 121.171 190.104 123.345C188.454 125.519 187.62 128.203 187.748 130.928L188.37 144.509L185.935 161.419L185.933 164.48L184.665 165.888C184.208 166.395 183.876 167.002 183.696 167.66C183.515 168.318 183.491 169.009 183.625 169.678L183.792 170.511C183.147 170.787 182.578 171.213 182.132 171.754C181.687 172.295 181.378 172.935 181.231 173.62L180.785 175.696C180.404 176.198 177.889 179.549 177.889 180.465C177.889 180.602 177.99 180.735 178.208 180.883C179.923 182.042 189.397 184.406 193.591 182.73C198.058 180.946 215.814 183.622 215.993 183.65L216.085 183.664Z" fill="#E6E6E6"/>
<path d="M202.487 111.483C208.341 111.483 213.087 106.742 213.087 100.893C213.087 95.045 208.341 90.304 202.487 90.304C196.633 90.304 191.887 95.045 191.887 100.893C191.887 106.742 196.633 111.483 202.487 111.483Z" fill="#FFB6B6"/>
<path d="M199.03 147.41L191.666 160.93L170.179 175.883L165.926 171.331L181.666 156.805C181.666 156.805 187.649 146.027 192.077 142.968L199.03 147.41Z" fill="#FFB6B6"/>
<path d="M167.141 178.007C169.154 178.007 170.787 176.377 170.787 174.366C170.787 172.354 169.154 170.724 167.141 170.724C165.127 170.724 163.495 172.354 163.495 174.366C163.495 176.377 165.127 178.007 167.141 178.007Z" fill="#FFB6B6"/>
<path d="M198.367 149.212L202.998 138.11L201.323 131.975C200.99 130.771 200.326 129.685 199.407 128.839C198.489 127.993 197.351 127.42 196.124 127.185V127.185C194.457 126.878 192.737 127.215 191.31 128.127C189.883 129.039 188.855 130.459 188.436 132.099C187.168 137.072 186.194 143.539 188.755 146.098L188.781 146.124L181.159 156.054L192.385 162.393L198.367 149.212Z" fill="#E6E6E6"/>
<path d="M212.96 93.5961C212.098 92.4356 210.86 91.6106 209.912 90.5188C209.435 89.8856 208.922 89.28 208.376 88.7048C207.231 87.7541 205.786 87.2386 204.297 87.2493C202.682 87.2079 201.08 87.5468 199.621 88.2387C198.161 88.9307 196.885 89.9562 195.896 91.2322C195.126 90.781 194.355 90.3299 193.585 89.8787C193.281 90.6789 192.976 91.479 192.672 92.2791C192.422 92.0623 192.104 91.9408 191.773 91.9361C191.442 91.9315 191.12 92.044 190.864 92.2538C190.609 92.4635 190.436 92.757 190.376 93.0821C190.316 93.4072 190.373 93.743 190.538 94.0299C190.354 93.4641 189.514 93.344 189.051 93.7178C188.837 93.9252 188.678 94.1829 188.588 94.4673C188.499 94.7518 188.482 95.0541 188.54 95.3467C188.635 95.9939 188.921 96.598 189.362 97.0813C189.803 97.5646 190.379 97.905 191.016 98.0588C192.021 98.2825 193.191 98.0475 193.995 98.6897C194.64 99.2046 194.835 100.142 195.493 100.64C196.304 101.253 197.451 100.97 198.459 101.105C199.338 101.256 200.129 101.73 200.675 102.435C201.221 103.139 201.482 104.022 201.408 104.91C201.531 104.342 201.766 103.804 202.098 103.327C202.268 103.092 202.502 102.91 202.774 102.805C203.045 102.7 203.341 102.676 203.625 102.735C204.544 103.01 204.694 104.261 204.471 105.192C203.881 107.663 201.644 111.656 201.644 111.656C204.549 112.801 208.01 111.718 210.251 109.546C212.492 107.374 213.659 104.299 214.168 101.221C214.599 98.6112 214.538 95.7205 212.96 93.5961Z" fill="#2F2E41"/>
<path d="M308.917 273.932C308.917 274.008 308.903 274.084 308.873 274.154C308.844 274.225 308.802 274.289 308.748 274.343C308.694 274.397 308.629 274.44 308.559 274.469C308.488 274.498 308.413 274.513 308.336 274.512H171.526C171.372 274.512 171.224 274.451 171.115 274.342C171.006 274.234 170.945 274.086 170.945 273.932C170.945 273.778 171.006 273.631 171.115 273.522C171.224 273.413 171.372 273.352 171.526 273.352H308.336C308.413 273.352 308.488 273.367 308.559 273.396C308.629 273.425 308.694 273.467 308.748 273.521C308.802 273.575 308.844 273.639 308.873 273.71C308.903 273.78 308.917 273.856 308.917 273.932V273.932Z" fill="#CCCCCC"/>
</g>
<defs>
<clipPath id="clip0_20_65">
<rect width="315" height="275" fill="white"/>
</clipPath>
</defs>
</svg>
