<svg viewBox="0 0 32 37" fill="currentColor" xmlns="http://www.w3.org/2000/svg">
<path d="M31.5 25.8125V2.1875C31.5 1.27344 30.7266 0.5 29.8125 0.5H6.75C3.02344 0.5 0 3.52344 0 7.25V29.75C0 33.4766 3.02344 36.5 6.75 36.5H29.8125C30.7266 36.5 31.5 35.7969 31.5 34.8125V33.6875C31.5 33.1953 31.2188 32.7031 30.8672 32.4219C30.5156 31.2969 30.5156 28.2031 30.8672 27.1484C31.2188 26.8672 31.5 26.375 31.5 25.8125ZM9 9.92188C9 9.71094 9.14062 9.5 9.42188 9.5H24.3281C24.5391 9.5 24.75 9.71094 24.75 9.92188V11.3281C24.75 11.6094 24.5391 11.75 24.3281 11.75H9.42188C9.14062 11.75 9 11.6094 9 11.3281V9.92188ZM9 14.4219C9 14.2109 9.14062 14 9.42188 14H24.3281C24.5391 14 24.75 14.2109 24.75 14.4219V15.8281C24.75 16.1094 24.5391 16.25 24.3281 16.25H9.42188C9.14062 16.25 9 16.1094 9 15.8281V14.4219ZM26.7891 32H6.75C5.48438 32 4.5 31.0156 4.5 29.75C4.5 28.5547 5.48438 27.5 6.75 27.5H26.7891C26.6484 28.7656 26.6484 30.8047 26.7891 32Z"/>
</svg>
